<svg width="20" height="20" viewBox="0 0 20 20" fill="none" xmlns="http://www.w3.org/2000/svg">
<path fill-rule="evenodd" clip-rule="evenodd" d="M10 14C13.866 14 17 12.2091 17 10C17 7.79086 13.866 6 10 6C6.13401 6 3 7.79086 3 10C3 12.2091 6.13401 14 10 14Z" fill="white"/>
<path fill-rule="evenodd" clip-rule="evenodd" d="M10 14C12.2091 14 14 12.2091 14 10C14 7.79086 12.2091 6 10 6C7.79086 6 6 7.79086 6 10C6 12.2091 7.79086 14 10 14Z" fill="#80DCFF"/>
<path fill-rule="evenodd" clip-rule="evenodd" d="M7 9C7.55228 9 8 8.55228 8 8C8 7.44772 7.55228 7 7 7C6.44772 7 6 7.44772 6 8C6 8.55228 6.44772 9 7 9Z" fill="white"/>
<path fill-rule="evenodd" clip-rule="evenodd" d="M17 10C17 13 14 16 10 16C6 16 3 13 3 10C3 11.1429 6.5 13.4286 10 13.4286C13.5 13.4286 17 11.1429 17 10ZM10 4C14 4 17 7 17 10C17 8.85714 13.5 6.57143 10 6.57143C6.5 6.57143 3 8.85714 3 10C3 7 6 4 10 4Z" fill="#F25565"/>
<path fill-rule="evenodd" clip-rule="evenodd" d="M10 12C11.1046 12 12 11.1046 12 10C12 8.89543 11.1046 8 10 8C8.89543 8 8 8.89543 8 10C8 11.1046 8.89543 12 10 12Z" fill="#34495E"/>
<path fill-rule="evenodd" clip-rule="evenodd" d="M8.5 10C8.77614 10 9 9.77614 9 9.5C9 9.22386 8.77614 9 8.5 9C8.22386 9 8 9.22386 8 9.5C8 9.77614 8.22386 10 8.5 10Z" fill="white"/>
</svg>
