<svg width="20" height="20" viewBox="0 0 20 20" fill="none" xmlns="http://www.w3.org/2000/svg">
<path d="M12.7734 17.1929C12.7734 17.6375 12.411 17.9968 11.9664 17.9929L7.38933 17.9526C6.95027 17.9488 6.59637 17.5917 6.59637 17.1526V14.4567L12.7734 15.5V17.1929Z" fill="#E7A793"/>
<path d="M18.4404 10.4781C18.2748 10.4781 17.9921 9.32954 15.5402 10.4781C15.2 10.6824 14.7408 10.9479 14.31 11.2075V3.99553C14.31 3.44544 13.8642 3 13.2923 3C12.722 3 12.2587 3.44595 12.2587 3.99553V8.48399H7.10701V5.49634C7.10701 4.94676 6.66019 4.50178 6.0883 4.50178C5.51795 4.50178 5.05466 4.94722 5.05466 5.49634L5.05466 13.9679C5.05466 14.6675 6.38377 15.9515 7.11472 15.9515H12.2659C12.8162 15.9515 13.7041 15.3491 14.1102 14.7527C14.4119 14.4363 15.4033 13.1572 18.0692 11.8562C18.5551 11.5777 18.7209 10.9609 18.4404 10.4781Z" fill="#E7A793"/>
<path d="M7.11113 8.47403H11.2292L11.2364 12.4417C11.2364 13.0073 10.7747 13.4647 10.2033 13.4647C9.63195 13.4647 9.17019 13.0073 9.17019 12.4417C9.17019 13.0073 8.70795 13.4647 8.13707 13.4647C7.56619 13.4647 7.10342 13.0073 7.10342 12.4417C7.10342 12.4417 7.11113 8.47403 7.11113 8.47403Z" fill="#BA8776"/>
<path d="M10.7129 6.98273C10.1441 6.98273 9.68289 7.44263 9.68289 8.01014C9.68289 7.44211 9.22166 6.98273 8.65289 6.98273C8.0836 6.98273 7.62289 7.44263 7.62289 8.01014V11.4363C7.62289 12.0043 8.0836 12.4637 8.65289 12.4637C9.22119 12.4637 9.68342 12.0043 9.68342 11.4363C9.68342 12.0043 10.1447 12.4637 10.7134 12.4637C11.2817 12.4637 11.7434 12.0043 11.7434 11.4363V8.01014C11.7429 7.44263 11.2822 6.98273 10.7129 6.98273Z" fill="#E9B09E"/>
<path d="M10.7144 10.4706C10.1461 10.4706 9.68488 10.9171 9.68488 11.4672C9.68488 10.9171 9.22365 10.4706 8.65535 10.4706C8.08706 10.4706 7.62582 10.9171 7.62582 11.4672V11.9654C7.62582 12.5155 8.08706 12.962 8.65535 12.962C9.22365 12.962 9.68488 12.5155 9.68488 11.9654C9.68488 12.5155 10.1461 12.962 10.7144 12.962C11.2827 12.962 11.7439 12.5155 11.7439 11.9654V11.4672C11.7439 10.917 11.2832 10.4706 10.7144 10.4706Z" fill="#EAC3B6"/>
</svg>
