<svg width="20" height="20" viewBox="0 0 20 20" fill="none" xmlns="http://www.w3.org/2000/svg">
<path fill-rule="evenodd" clip-rule="evenodd" d="M7.5 14.3306C6.0055 13.4661 5 11.8502 5 9.99951C5 7.23809 7.23858 4.99951 10 4.99951C12.7614 4.99951 15 7.23809 15 9.99951C15 11.8502 13.9945 13.4661 12.5 14.3306V18.4998H7.5L7.5 14.3306ZM11.7489 13.0322L11 13.4654V16.9998H9V13.4654L8.25109 13.0322C7.20102 12.4248 6.5 11.2931 6.5 9.99951C6.5 8.06651 8.067 6.49951 10 6.49951C11.933 6.49951 13.5 8.06651 13.5 9.99951C13.5 11.2931 12.799 12.4248 11.7489 13.0322Z" fill="#00A042"/>
<path d="M9.25 0.999512V2.99951L10.75 2.99951V0.999512L9.25 0.999512Z" fill="#00A042"/>
<path d="M5.53033 4.46918L4.03033 2.96918L2.96967 4.02984L4.46967 5.52984L5.53033 4.46918Z" fill="#00A042"/>
<path d="M15.5303 5.52984L17.0303 4.02984L15.9697 2.96918L14.4697 4.46918L15.5303 5.52984Z" fill="#00A042"/>
<path d="M1 10.7495H3L3 9.24951H1L1 10.7495Z" fill="#00A042"/>
<path d="M17 10.7495H19V9.24951L17 9.24951V10.7495Z" fill="#00A042"/>
</svg>
